<svg width="35" height="35" viewBox="0 0.5 35 35" fill="none" xmlns="http://www.w3.org/2000/svg">
<rect y="0.5" width="35" height="35" rx="5" fill="#F54EA2"/>
<path fill-rule="evenodd" clip-rule="evenodd" d="M18.4575 19.6619L17.2495 16.6433L16.0261 19.6619H18.4575ZM15.8247 13.1389H18.7211L23.3362 23.8334H20.1146L19.3248 21.9371H15.1432L14.3687 23.8334H11.2093L15.8247 13.1389V13.1389Z" fill="white"/>
<path fill-rule="evenodd" clip-rule="evenodd" d="M28.5994 21.4695C29.0653 21.4695 29.4225 21.3862 29.6708 21.2197C29.919 21.0529 30.0433 20.8133 30.0433 20.5V20.4694C30.0433 20.1768 29.9243 19.9443 29.6861 19.7724C29.4479 19.6008 29.0754 19.5148 28.5684 19.5148H26.2707V21.4695H28.5994ZM28.1649 17.4541C28.6304 17.4541 28.9848 17.3783 29.2282 17.2267C29.4713 17.0751 29.5931 16.843 29.5931 16.5297V16.4991C29.5931 16.2065 29.4793 15.9819 29.2516 15.8249C29.0238 15.6686 28.6823 15.5904 28.2268 15.5904H26.2707V17.4541H28.1649ZM23.3362 13.2266H28.9006C29.5823 13.2266 30.1663 13.3074 30.652 13.4689C31.1377 13.6306 31.5406 13.8678 31.8612 14.1808C32.0782 14.3932 32.2484 14.6409 32.3724 14.9237C32.4963 15.2064 32.5587 15.5296 32.5587 15.8932V15.9235C32.5587 16.5399 32.4013 17.0371 32.0876 17.4163C31.7735 17.7949 31.3741 18.0855 30.8905 18.2873C31.5548 18.4997 32.082 18.8056 32.4713 19.2042C32.8605 19.6035 33.0555 20.1615 33.0555 20.8785V20.9091C33.0555 21.8283 32.6955 22.5454 31.9765 23.0606C31.2568 23.5761 30.2453 23.8333 28.941 23.8333H23.3362V13.2266V13.2266Z" fill="white"/>
<path fill-rule="evenodd" clip-rule="evenodd" d="M5.93515 21.2574V13.2266L2.91669 19.6976V23.8333H11.2093V21.2574H5.93515" fill="white"/>
</svg>
